<?xml version="1.0" encoding="utf-8"?>
<!-- Generator: Adobe Illustrator 23.0.3, SVG Export Plug-In . SVG Version: 6.00 Build 0)  -->
<svg version="1.1" id="Layer_1" 
	xmlns="http://www.w3.org/2000/svg" 
	xmlns:xlink="http://www.w3.org/1999/xlink" x="0px" y="0px" viewBox="0 0 1529.2 186.1" style="enable-background:new 0 0 1529.2 186.1;" xml:space="preserve">
	<path class="logo" d="M81.3,3.2c39.4,0,68.6,9.2,68.6,46.6c0,16.4-7.7,29-21.3,37.4c16.6,5.9,28.5,18.6,28.5,40.4
		c0,40.1-29,55.3-72.6,55.3H3V3.2H81.3z M82.8,75.1c14.6,0,23-7.2,23-18.3c0-11.2-8.4-17.8-23-17.8H45.4v36.2L82.8,75.1L82.8,75.1z
		 M85,147.2c18.1,0,27.3-7.7,27.3-20.3s-9.2-20.3-27.3-20.3H45.4v40.6L85,147.2L85,147.2z M176.5,93.2c0-56,37.9-92.9,93.2-92.9
		c55,0,93.2,36.9,93.2,92.9s-38.2,92.9-93.2,92.9C214.4,186.1,176.5,149.2,176.5,93.2L176.5,93.2z M318,93.2c0-38.2-22.1-58-48.3-58
		s-48.3,19.8-48.3,58s22.1,58,48.3,58S318,131.3,318,93.2z M520.6,145.5v37.4H392V3.2h42.4v142.2h86.2V145.5z M708.5,92.9
		c0,68.6-46.3,90-105.1,90h-59.2V3.2h59.2C662.1,3.2,708.5,24.5,708.5,92.9z M586.6,38.9v108.3h17.6c31.2,0,59.5-6.7,59.5-54.3
		c0-47.3-28.2-54-59.5-54C604.2,38.9,586.6,38.9,586.6,38.9z M868.1,49.1h-24.5c-6.2-20.8-26.5-27.8-44.6-27.8
		c-13.9,0-38.2,6.2-38.2,26.3c0,15.9,12.6,23.8,29.2,27.5l20.8,4.7c27.5,5.9,60.5,16.4,60.5,52.5c0,35.2-32.7,53.8-68.4,53.8
		c-42.4,0-69.1-23-73.8-59h24.8c4.7,24.8,22.1,37.7,49.6,37.7c26.5,0,41.9-12.6,41.9-30.2c0-18.8-16.1-26.8-38.7-31.7l-22.3-4.7
		C759.8,92.7,735,79,735,49.1C735,14.9,770.9,0,799.9,0C832.1,0,861.1,14.4,868.1,49.1L868.1,49.1z M983.3,3.2l67.7,179.7h-27.3
		l-14.1-38.9H927l-13.9,38.9h-25.8L954,3.2H983.3z M1001.6,122.4l-33.7-93.7l-33.2,93.7H1001.6z M1122.5,156.9l48.8-153.6h26.5
		l-61,179.7h-30.2L1045,3.2h27.8L1122.5,156.9z M1351,3.2V25h-96.6v54.5h90.9v21.8h-90.9V161h96.6v21.8h-121.9V3.2H1351z
		 M1445.4,107.3h-31.7v75.6h-25.3V3.2h57c43.9,0,74.8,8.7,74.8,51.8c0,28.5-13.6,42.1-35.7,48.1l41.6,79.8H1498l-38.9-75.8
		C1454.6,107.3,1450.1,107.3,1445.4,107.3L1445.4,107.3z M1413.7,86h33.7c26.3,0,46.8-2.7,46.8-30.5s-20.6-31-46.8-31h-33.7V86z"/>
</svg>
