<svg id="Layer_1" xmlns="http://www.w3.org/2000/svg" viewBox="0 0 1529.2 186.1"><style>.st0{fill:#040404;} .st1{fill:#FFFFFF;}</style><path class="st0" d="M2179.3 3.2c39.4 0 68.6 9.2 68.6 46.6 0 16.4-7.7 29-21.3 37.4 16.6 5.9 28.5 18.6 28.5 40.4 0 40.1-29 55.3-72.6 55.3H2101V3.2h78.3zm1.5 71.9c14.6 0 23-7.2 23-18.3 0-11.2-8.4-17.8-23-17.8h-37.4v36.2h37.4zm2.2 72.1c18.1 0 27.3-7.7 27.3-20.3s-9.2-20.3-27.3-20.3h-39.6v40.6h39.6zM2274.5 93.2c0-56 37.9-92.9 93.2-92.9 55 0 93.2 36.9 93.2 92.9s-38.2 92.9-93.2 92.9c-55.3 0-93.2-36.9-93.2-92.9zm141.5 0c0-38.2-22.1-58-48.3-58s-48.3 19.8-48.3 58 22.1 58 48.3 58 48.3-19.9 48.3-58zM2618.6 145.5v37.4H2490V3.2h42.4v142.2h86.2zM2806.5 92.9c0 68.6-46.3 90-105.1 90h-59.2V3.2h59.2c58.7 0 105.1 21.3 105.1 89.7zm-121.9-54v108.3h17.6c31.2 0 59.5-6.7 59.5-54.3 0-47.3-28.2-54-59.5-54h-17.6zM2966.1 49.1h-24.5c-6.2-20.8-26.5-27.8-44.6-27.8-13.9 0-38.2 6.2-38.2 26.3 0 15.9 12.6 23.8 29.2 27.5l20.8 4.7c27.5 5.9 60.5 16.4 60.5 52.5 0 35.2-32.7 53.8-68.4 53.8-42.4 0-69.1-23-73.8-59h24.8c4.7 24.8 22.1 37.7 49.6 37.7 26.5 0 41.9-12.6 41.9-30.2 0-18.8-16.1-26.8-38.7-31.7l-22.3-4.7c-24.5-5.5-49.3-19.1-49.3-49.1C2833.1 14.9 2869 0 2898 0c32.1 0 61.1 14.4 68.1 49.1zM3081.3 3.2l67.7 179.7h-27.3l-14.1-38.9H3025l-13.9 38.9h-25.8L3052 3.2h29.3zm18.3 119.2l-33.7-93.7-33.2 93.7h66.9zM3220.5 156.9l48.8-153.6h26.5l-61 179.7h-30.2L3143 3.2h27.8l49.7 153.7zM3449 3.2V25h-96.6v54.5h90.9v21.8h-90.9V161h96.6v21.8h-121.9V3.2H3449zM3543.4 107.3h-31.7v75.6h-25.3V3.2h57c43.9 0 74.8 8.7 74.8 51.8 0 28.5-13.6 42.1-35.7 48.1l41.6 79.8H3596l-38.9-75.8c-4.5.2-9 .2-13.7.2zM3511.7 86h33.7c26.3 0 46.8-2.7 46.8-30.5s-20.6-31-46.8-31h-33.7V86z"/><g><path class="st0" d="M2179.3-1387.8c39.4 0 68.6 9.2 68.6 46.6 0 16.4-7.7 29-21.3 37.4 16.6 5.9 28.5 18.6 28.5 40.4 0 40.1-29 55.3-72.6 55.3H2101v-179.7h78.3zm1.5 71.9c14.6 0 23-7.2 23-18.3 0-11.2-8.4-17.8-23-17.8h-37.4v36.2h37.4zm2.2 72.1c18.1 0 27.3-7.7 27.3-20.3s-9.2-20.3-27.3-20.3h-39.6v40.6h39.6zM2274.5-1297.8c0-56 37.9-92.9 93.2-92.9 55 0 93.2 36.9 93.2 92.9s-38.2 92.9-93.2 92.9c-55.3 0-93.2-36.9-93.2-92.9zm141.5 0c0-38.2-22.1-58-48.3-58s-48.3 19.8-48.3 58 22.1 58 48.3 58 48.3-19.9 48.3-58zM2618.6-1245.5v37.4H2490v-179.7h42.4v142.2h86.2zM2806.5-1298.1c0 68.6-46.3 90-105.1 90h-59.2v-179.7h59.2c58.7 0 105.1 21.3 105.1 89.7zm-121.9-54v108.3h17.6c31.2 0 59.5-6.7 59.5-54.3 0-47.3-28.2-54-59.5-54h-17.6zM2966.1-1341.9h-24.5c-6.2-20.8-26.5-27.8-44.6-27.8-13.9 0-38.2 6.2-38.2 26.3 0 15.9 12.6 23.8 29.2 27.5l20.8 4.7c27.5 5.9 60.5 16.4 60.5 52.5 0 35.2-32.7 53.8-68.4 53.8-42.4 0-69.1-23-73.8-59h24.8c4.7 24.8 22.1 37.7 49.6 37.7 26.5 0 41.9-12.6 41.9-30.2 0-18.8-16.1-26.8-38.7-31.7l-22.3-4.7c-24.5-5.5-49.3-19.1-49.3-49.1 0-34.2 35.9-49.1 64.9-49.1 32.1 0 61.1 14.4 68.1 49.1zM3081.3-1387.8l67.7 179.7h-27.3l-14.1-38.9H3025l-13.9 38.9h-25.8l66.7-179.7h29.3zm18.3 119.2l-33.7-93.7-33.2 93.7h66.9zM3220.5-1234.1l48.8-153.6h26.5l-61 179.7h-30.2l-61.7-179.7h27.8l49.8 153.6zM3449-1387.8v21.8h-96.6v54.5h90.9v21.8h-90.9v59.7h96.6v21.8h-121.9v-179.7H3449zM3543.4-1283.7h-31.7v75.6h-25.3v-179.7h57c43.9 0 74.8 8.7 74.8 51.8 0 28.5-13.6 42.1-35.7 48.1l41.6 79.8H3596l-38.9-75.8c-4.5.2-9 .2-13.7.2zm-31.7-21.3h33.7c26.3 0 46.8-2.7 46.8-30.5s-20.6-31-46.8-31h-33.7v61.5z"/></g><g id="Logo"><path class="st1" d="M81.3 3.2c39.4 0 68.6 9.2 68.6 46.6 0 16.4-7.7 29-21.3 37.4 16.6 5.9 28.5 18.6 28.5 40.4 0 40.1-29 55.3-72.6 55.3H3V3.2h78.3zm1.5 71.9c14.6 0 23-7.2 23-18.3 0-11.2-8.4-17.8-23-17.8H45.4v36.2h37.4zm2.2 72.1c18.1 0 27.3-7.7 27.3-20.3s-9.2-20.3-27.3-20.3H45.4v40.6H85zM176.5 93.2c0-56 37.9-92.9 93.2-92.9 55 0 93.2 36.9 93.2 92.9s-38.2 92.9-93.2 92.9c-55.3 0-93.2-36.9-93.2-92.9zm141.5 0c0-38.2-22.1-58-48.3-58s-48.3 19.8-48.3 58 22.1 58 48.3 58 48.3-19.9 48.3-58zM520.6 145.5v37.4H392V3.2h42.4v142.2h86.2zM708.5 92.9c0 68.6-46.3 90-105.1 90h-59.2V3.2h59.2c58.7 0 105.1 21.3 105.1 89.7zm-121.9-54v108.3h17.6c31.2 0 59.5-6.7 59.5-54.3 0-47.3-28.2-54-59.5-54h-17.6zM868.1 49.1h-24.5c-6.2-20.8-26.5-27.8-44.6-27.8-13.9 0-38.2 6.2-38.2 26.3 0 15.9 12.6 23.8 29.2 27.5l20.8 4.7c27.5 5.9 60.5 16.4 60.5 52.5 0 35.2-32.7 53.8-68.4 53.8-42.4 0-69.1-23-73.8-59h24.8c4.7 24.8 22.1 37.7 49.6 37.7 26.5 0 41.9-12.6 41.9-30.2 0-18.8-16.1-26.8-38.7-31.7l-22.3-4.7C759.8 92.7 735 79 735 49.1 735 14.9 770.9 0 799.9 0c32.2 0 61.2 14.4 68.2 49.1zM983.3 3.2l67.7 179.7h-27.3l-14.1-38.9H927l-13.9 38.9h-25.8L954 3.2h29.3zm18.3 119.2l-33.7-93.7-33.2 93.7h66.9zM1122.5 156.9l48.8-153.6h26.5l-61 179.7h-30.2L1045 3.2h27.8l49.7 153.7zM1351 3.2V25h-96.6v54.5h90.9v21.8h-90.9V161h96.6v21.8h-121.9V3.2H1351zM1445.4 107.3h-31.7v75.6h-25.3V3.2h57c43.9 0 74.8 8.7 74.8 51.8 0 28.5-13.6 42.1-35.7 48.1l41.6 79.8H1498l-38.9-75.8c-4.5.2-9 .2-13.7.2zM1413.7 86h33.7c26.3 0 46.8-2.7 46.8-30.5s-20.6-31-46.8-31h-33.7V86z"/></g><g><path class="st0" d="M-195.4-1838h1920v1080h-1920z"/></g><g><path class="st1" d="M81.3-1387.8c39.4 0 68.6 9.2 68.6 46.6 0 16.4-7.7 29-21.3 37.4 16.6 5.9 28.5 18.6 28.5 40.4 0 40.1-29 55.3-72.6 55.3H3v-179.7h78.3zm1.5 71.9c14.6 0 23-7.2 23-18.3 0-11.2-8.4-17.8-23-17.8H45.4v36.2h37.4zm2.2 72.1c18.1 0 27.3-7.7 27.3-20.3s-9.2-20.3-27.3-20.3H45.4v40.6H85zM176.5-1297.8c0-56 37.9-92.9 93.2-92.9 55 0 93.2 36.9 93.2 92.9s-38.2 92.9-93.2 92.9c-55.3 0-93.2-36.9-93.2-92.9zm141.5 0c0-38.2-22.1-58-48.3-58s-48.3 19.8-48.3 58 22.1 58 48.3 58 48.3-19.9 48.3-58zM520.6-1245.5v37.4H392v-179.7h42.4v142.2h86.2zM708.5-1298.1c0 68.6-46.3 90-105.1 90h-59.2v-179.7h59.2c58.7 0 105.1 21.3 105.1 89.7zm-121.9-54v108.3h17.6c31.2 0 59.5-6.7 59.5-54.3 0-47.3-28.2-54-59.5-54h-17.6zM868.1-1341.9h-24.5c-6.2-20.8-26.5-27.8-44.6-27.8-13.9 0-38.2 6.2-38.2 26.3 0 15.9 12.6 23.8 29.2 27.5l20.8 4.7c27.5 5.9 60.5 16.4 60.5 52.5 0 35.2-32.7 53.8-68.4 53.8-42.4 0-69.1-23-73.8-59h24.8c4.7 24.8 22.1 37.7 49.6 37.7 26.5 0 41.9-12.6 41.9-30.2 0-18.8-16.1-26.8-38.7-31.7l-22.3-4.7c-24.5-5.5-49.3-19.1-49.3-49.1 0-34.2 35.9-49.1 64.9-49.1 32.1 0 61.1 14.4 68.1 49.1zM983.3-1387.8l67.7 179.7h-27.3l-14.1-38.9H927l-13.9 38.9h-25.8l66.7-179.7h29.3zm18.3 119.2l-33.7-93.7-33.2 93.7h66.9zM1122.5-1234.1l48.8-153.6h26.5l-61 179.7h-30.2l-61.7-179.7h27.8l49.8 153.6zM1351-1387.8v21.8h-96.6v54.5h90.9v21.8h-90.9v59.7h96.6v21.8h-121.9v-179.7H1351zM1445.4-1283.7h-31.7v75.6h-25.3v-179.7h57c43.9 0 74.8 8.7 74.8 51.8 0 28.5-13.6 42.1-35.7 48.1l41.6 79.8H1498l-38.9-75.8c-4.5.2-9 .2-13.7.2zm-31.7-21.3h33.7c26.3 0 46.8-2.7 46.8-30.5s-20.6-31-46.8-31h-33.7v61.5z"/></g><g><path class="st0" d="M-195.4-3541h1920v1080h-1920z"/></g><text transform="translate(-21.5271 -2980.8159)"><tspan x="0" y="0" class="st1" font-family="SuisseIntl-Bold" font-size="247.7982" letter-spacing="7">Bold</tspan><tspan x="734.5" y="0" class="st1" font-family="SuisseIntl-Regular" font-size="247.7982" letter-spacing="7">Saver</tspan></text></svg>